<svg xmlns="http://www.w3.org/2000/svg" width="553" height="127" viewBox="0 0 553 127">
  <g fill="none" fill-rule="evenodd">
    <path fill="#FFD3A6" fill-rule="nonzero" d="M473.231412,45.4430917 C473.644432,47.4142384 473.957752,48.9980691 474.171371,50.1945836 C475.346247,56.7752579 476.259616,64.2379622 476.636986,71.4386097 C476.986486,78.1074578 476.901471,84.5867868 476.125852,90.0408542 C474.840653,98.9649077 470.387198,107.0473 461.420972,112.019615 C458.656111,113.552898 456.266015,114.694755 454.250686,115.445187 C453.328279,115.788656 452.302246,115.408835 451.819581,114.569092 L451.744279,114.424921 L446.584869,103.499116 C446.120892,102.516576 446.52626,101.343334 447.49783,100.856804 C448.374035,100.418013 449.051947,100.060753 449.531567,99.7850231 C454.890481,96.7042244 457.682483,93.2960247 458.771674,89.0397297 C459.820026,84.7389691 460.055276,79.1009303 459.739063,73.0672107 C459.339401,65.4412088 458.125888,57.2176057 456.724729,50.3437068 C456.603289,49.7479379 456.443821,49.0025775 456.246325,48.1076257 C456.235027,48.0564306 456.225747,48.0048111 456.218506,47.9528868 C456.072876,46.9086434 456.761615,45.9404401 457.775996,45.7218673 L457.923067,45.6958149 L470.997679,43.8724406 C472.039427,43.7271593 473.015683,44.4136226 473.231412,45.4430917 Z M191.85019,56.47034 C193.232017,76.2313941 181.364873,88.507891 165.740463,89.6004561 C159.930704,90.0067141 153.334407,88.6896463 148.826625,86.7415375 L148.410227,86.5570869 L151.137676,111.548465 C151.141842,111.586639 151.144908,111.624925 151.14687,111.663276 C151.200733,112.716261 150.430049,113.620616 149.40044,113.749732 L149.251653,113.762836 L134.250811,114.530169 C133.237943,114.58198 132.35558,113.869279 132.180027,112.886179 L132.159067,112.736748 L124.398236,37.0349566 C124.39474,37.000862 124.392122,36.9666832 124.390383,36.9324541 C124.336893,35.87945 125.107897,34.9753674 126.137551,34.8466153 L126.286343,34.8335642 L140.954702,34.0884395 C141.964898,34.0371234 142.84551,34.746326 143.02367,35.7263473 L143.045054,35.8753204 L143.541288,40.5629675 C146.878737,35.9561726 154.525802,31.2335199 161.1045,30.7734924 C177.668724,29.6152091 190.59174,38.4736657 191.85019,56.47034 Z M51.0002247,13.5257472 C55.8489108,13.5257472 60.4284453,14.9513608 66.5002247,17.0257472 C66.9830024,17.1906853 68.1516732,17.7599209 70.006237,18.7334541 C70.8701644,19.1869634 71.2807415,20.1976889 70.9778332,21.125206 L70.9778332,21.125206 L66.9858425,33.3478872 C66.9674776,33.4041168 66.9466272,33.4595039 66.9233528,33.5138853 C66.4887393,34.5293727 65.3132003,35.0002641 64.2977225,34.5656282 C63.9200859,34.4040053 63.602308,34.2679316 63.3443887,34.157407 C59.4036168,32.4686915 56.8958334,31.5257472 54.5002247,31.5257472 C48.4358683,31.5257472 45.6390366,35.2137472 45.6390366,41.971989 L45.6390366,41.971989 L45.6392381,42.6845905 C45.6407495,44.6411399 45.6535969,47.7884079 45.762799,49.3785824 L45.762799,49.3785824 L62.2356213,48.9761105 C63.3274306,48.9494349 64.23876,49.8035428 64.2828418,50.8947879 L64.2828418,50.8947879 L64.7402085,62.2168952 C64.7406287,62.2272962 64.7409676,62.2377003 64.7412253,62.2481065 C64.7685715,63.3523375 63.8955839,64.269662 62.791353,64.2970081 L62.791353,64.2970081 L46.6291356,64.6972637 C47.5703881,74.3107039 50.381695,89.5563921 52.4999842,99.8279334 C52.6631067,100.618911 52.8662665,101.583984 53.1094637,102.723151 C53.1250849,102.796323 53.1365877,102.870314 53.1439179,102.944775 C53.2521321,104.044027 52.448737,105.022872 51.3494852,105.131093 L51.3494852,105.131093 L37.0659906,106.537209 C36.0460305,106.637618 35.1152282,105.950753 34.9103995,104.946539 C34.7247494,104.036351 34.5681656,103.260151 34.4406481,102.61794 C32.4426469,92.5554873 29.4122721,75.7988522 28.4459673,65.1478132 L28.4459673,65.1478132 L22.6152934,65.3160616 C21.5201715,65.3476621 20.6034565,64.4923045 20.5592358,63.3976197 L20.5592358,63.3976197 L20.1030132,52.103836 C20.1023344,52.0870316 20.1018676,52.0702193 20.1016128,52.0534032 C20.0848824,50.9489604 20.9666475,50.0400699 22.0710903,50.0233395 L22.0710903,50.0233395 L27.4558683,49.9417692 C27.3458573,47.6389609 27.3336338,43.9339006 27.3322757,41.4776983 L27.3321059,40.6203407 C27.3321059,24.5131978 34.9111158,13.5257472 51.0002247,13.5257472 Z M230.189847,40.3656257 C248.028913,39.4307198 258.312241,50.7879735 259.066964,65.1889421 C259.383967,71.2377138 259.936242,80.1092277 260.723788,91.8034837 C260.725392,91.8273043 260.72657,91.8511516 260.72732,91.8750143 C260.762033,92.9790281 259.895194,93.9021485 258.79118,93.9368797 L258.79118,93.9368797 L244.271835,94.3934035 C243.196692,94.4272086 242.287381,93.6045689 242.213681,92.5314223 C241.457406,81.5195338 240.8844,73.3068802 240.494663,67.8934616 C240.000225,61.0257472 235.114477,56.5630153 229.130487,56.8766229 C219.872237,57.3618272 217.57964,63.3029627 218.346064,77.9272021 C218.50341,80.929548 218.963691,86.0803085 219.726905,93.3794838 C219.728625,93.395934 219.730141,93.412405 219.731452,93.4288928 C219.819034,94.5299869 218.99742,95.493599 217.896326,95.5811769 L217.896326,95.5811769 L203.164604,96.7529489 C202.092931,96.8381905 201.14559,96.0609893 201.019768,94.9933202 L201.019768,94.9933202 L195.198501,45.5965476 C195.196643,45.5807866 195.194974,45.565004 195.193492,45.5492032 C195.090364,44.4494585 195.898281,43.4743374 196.998026,43.3712093 L196.998026,43.3712093 L212.037931,41.9608474 L212.037931,41.9608474 L212.081902,41.9572128 C213.183654,41.8783693 214.140716,42.7076005 214.219559,43.8093525 L214.219559,43.8093525 L214.496601,47.6807116 C218.784648,43.0902454 224.431667,40.6673991 230.189847,40.3656257 Z M89.8113475,18.36927 C90.9138431,18.3016144 91.8624381,19.1405179 91.9300937,20.2430135 L91.9300937,20.2430135 L96.3817472,92.7857976 L96.3817472,92.7857976 L96.3836304,92.8217866 C96.4314098,93.9253222 95.5755504,94.8586475 94.4720148,94.906427 L94.4720148,94.906427 L81.6101253,95.4633049 C80.5223129,95.5104036 79.5966913,94.6786543 79.5276389,93.5920146 L79.5276389,93.5920146 L74.9720517,21.9032823 C74.9042165,20.8357983 75.688305,19.9038959 76.7516647,19.788182 L76.7516647,19.788182 L89.7174879,18.3772523 C89.7487074,18.373855 89.7800026,18.3711935 89.8113475,18.36927 Z M117.697908,47.0973207 L117.713816,47.245544 L120.888333,92.3596133 C120.962163,93.4088295 120.212639,94.3263791 119.188583,94.4781674 L119.040481,94.4945737 L106.001594,95.4569403 C104.943461,95.5314868 104.024174,94.7783433 103.875284,93.7514071 L103.859323,93.6028992 L100.675765,48.4081442 C100.600903,47.3003918 101.433927,46.3466298 102.535984,46.2721611 L115.583912,45.3904803 C116.633807,45.3195363 117.549528,46.0723049 117.697908,47.0973207 Z M436.170225,68.3237472 C436.700225,68.3237472 437.336225,68.4297472 437.866225,68.5357472 C442.000225,69.3837472 444.862225,74.2597472 444.862225,79.0297472 C444.862225,82.3157472 443.484225,85.6017472 440.304225,87.2977472 C439.244225,87.7217472 437.866225,88.0397472 436.488225,88.0397472 C431.400225,88.0397472 425.040225,84.7537472 425.040225,78.6057472 C425.040225,73.4117472 430.658225,68.3237472 436.170225,68.3237472 Z M293.617168,40.0257472 C309.212011,40.0257472 320.000225,50.3128958 320.000225,64.4695223 C320.000225,65.2245424 320.000225,65.9795625 319.893411,66.7345826 C318.932085,80.2305665 307.609801,87.0257472 290.19912,87.0257472 C275.886044,87.0257472 262.000225,80.7968316 262.000225,67.1120926 C262.000225,53.2385987 274.604276,40.0257472 293.617168,40.0257472 Z M340.363697,16.3138905 C340.500796,16.3023233 340.638724,16.3049343 340.775288,16.3216818 C341.871643,16.456134 342.651419,17.4539003 342.516968,18.5502554 C342.46663,18.9607272 342.42348,19.3152284 342.387517,19.6137591 C341.919349,23.500138 341.486599,28.4584025 341.188924,32.526559 L341.188924,32.526559 L351.425632,31.2848903 C352.518724,31.1523029 353.513378,31.928207 353.650817,33.0206992 L353.650817,33.0206992 L354.898761,42.9405017 C354.89901,42.9424844 354.899257,42.9444674 354.8995,42.9464509 C355.034086,44.0427904 354.254431,45.0406528 353.158091,45.1752388 L353.158091,45.1752388 L340.516028,46.7271718 C340.445125,51.9978191 340.585416,57.2499894 341.033534,62.3720039 C341.481652,67.4940183 343.456043,69.3857695 346.729538,69.0993757 C347.732706,69.0116099 350.878585,67.9807158 354.141896,66.771808 L354.896131,66.4900176 C355.298382,66.3384664 355.700053,66.1851115 356.097372,66.0313777 C356.032336,65.1867177 356.000225,64.3186141 356.000225,63.4273537 C356.000225,51.3149039 366.575413,38.4715304 382.492706,35.6522533 C384.78218,35.2345826 387.071653,35.0257472 389.252104,35.0257472 C401.898721,35.0257472 411.383683,41.6040605 411.383683,49.0177151 C411.383683,52.2546629 409.639322,55.5960284 405.496465,58.7285585 C400.064801,62.8400076 391.113191,66.4120534 382.997572,68.7403403 C381.940513,69.0435993 380.50648,69.4183838 378.695471,69.8646936 C377.896472,70.0616009 377.064649,69.7485236 376.591658,69.0884461 L376.50196,68.9518522 L371.808495,61.1301649 C371.699473,61.8610886 371.59045,62.69643 371.59045,63.4273537 C371.59045,71.1542613 374.643082,73.9735384 384.673157,73.9735384 C390.347735,73.9735384 396.564754,70.6615358 400.597081,66.3421874 C401.029606,65.8788759 401.529091,65.2557515 402.095537,64.4728143 C402.123921,64.4335816 402.153721,64.3953926 402.184877,64.358323 C402.860036,63.5550264 404.032393,63.4161792 404.872912,64.0136384 L405.002747,64.1141034 L412.611899,70.509483 C413.405921,71.1768459 413.557991,72.3404797 412.962126,73.1894722 C411.887044,74.7212968 410.993516,75.8734552 410.281544,76.6459474 C404.214193,83.2290468 395.290104,87.0257472 384.564134,87.0257472 C373.859765,87.0257472 366.241759,84.4231801 361.579852,79.5210421 C355.627222,81.686769 347.77619,84.1817915 344.77351,84.444492 C332.629897,85.5069205 325.806227,78.0524114 324.506685,63.1985695 C324.166115,59.3058385 324.043749,54.2585488 324.087764,48.6805806 L324.087764,48.6805806 L318.963117,49.1518035 C317.889116,49.2505603 316.930247,48.4799415 316.795626,47.4098443 L316.795626,47.4098443 L315.548582,37.4971927 C315.545713,37.4743907 315.543238,37.451541 315.541157,37.4286537 C315.441138,36.3286218 316.251809,35.3557887 317.351841,35.25577 L317.351841,35.25577 L324.452832,34.6101236 C324.677798,29.6104073 325.18549,24.8042573 325.636333,20.9089928 C325.68752,20.4667428 325.751409,19.8862914 325.828001,19.1676385 C325.929597,18.2143694 326.693326,17.4672639 327.6486,17.3866726 L327.6486,17.3866726 Z M513.655832,29.5994909 C522.84457,29.942797 530.690578,36.119086 531.220144,44.1582517 C531.301667,45.3958157 531.312451,46.4091317 531.252496,47.1981998 C531.251866,47.2064919 531.251184,47.21478 531.250451,47.2230637 C531.153032,48.3233391 530.182109,49.1363153 529.081836,49.0388782 L529.081836,49.0388782 L519.196145,48.1635979 C518.125855,48.0688342 517.321698,47.1453255 517.374998,46.0721713 C517.487978,43.7978589 516.322589,42.6180615 513.878832,42.5327792 C513.717116,42.5469275 513.372,42.5518714 512.951365,42.5530254 L512.417259,42.5529374 C512.138986,42.5523304 511.849062,42.5511386 511.570789,42.5505315 L511.036683,42.5504435 C510.616048,42.5515975 510.270932,42.5565415 510.109216,42.5706897 C505.490621,42.9747645 499.454301,44.905803 496.887849,47.2347318 C495.759422,48.2687423 495.180828,49.2546487 495.251883,50.0668074 C495.343239,51.1110115 496.283875,51.7301809 498.073792,51.9243157 C505.113343,52.594453 515.934051,54.6874431 522.42546,56.6915548 C529.146952,58.7924475 532.892579,63.6088204 533.339208,68.7138181 C533.82644,74.2829066 530.161906,80.6437064 522.701554,83.7955215 C515.241203,86.9473366 496.024726,86.9377873 492.766937,86.9954946 C492.423144,87.0015845 491.924947,87.0053738 491.272347,87.0068625 L489.86778,87.0069578 C489.550679,87.0064377 489.211864,87.0055941 488.851336,87.0044269 C487.786401,87.0009794 486.910937,86.1636638 486.860093,85.099937 L486.860093,85.099937 L486.379269,75.0433265 C486.376234,74.9798619 486.376226,74.9162888 486.379244,74.8528234 C486.431705,73.7495056 487.368648,72.8976179 488.471967,72.9500695 C489.215282,72.985413 489.836774,73.0087053 490.336444,73.0199464 C495.165556,73.1285877 500.374864,72.8838427 504.639626,72.5107244 C508.268522,72.1932371 511.337435,71.8078313 512.746699,71.4507152 C515.025545,70.9006098 516.424659,70.427471 516.373905,69.8473576 C516.333302,69.3832669 515.29285,68.889741 513.132431,68.260378 C509.95186,67.3695344 501.093307,65.6686478 494.383656,64.969648 C484.874087,63.9310556 480.243749,58.0933504 479.736215,52.2922166 C479.238832,46.6071055 481.512837,42.2144942 487.845223,37.3347847 C493.448445,32.9865117 498.68892,30.6574576 508.475944,29.801204 C509.795543,29.685754 512.216116,29.608539 513.655832,29.5994909 Z M160.856627,47.9103533 C152.613824,48.4867462 146.832965,54.2399816 147.42763,67.7491942 C147.472123,68.7940499 147.534493,69.9944942 147.603314,71.2116552 L147.63821,71.8209858 L147.673864,72.429245 C147.785637,74.3159398 147.903808,76.1310729 147.985375,77.3519223 L148.002278,77.6042462 L148.025325,77.9461212 L148.035725,78.0995389 L148.088463,78.8679139 L148.089057,78.8764057 L150.378477,72.7445024 C150.416333,72.6431093 150.462357,72.5449564 150.516096,72.4510106 C151.064537,71.4922283 152.286383,71.1595811 153.245175,71.7080065 C153.760728,72.0029127 154.213781,72.2358937 154.604334,72.4069497 C157.404475,73.633368 160.672221,74.3116397 163.157288,74.1378669 C170.58742,73.6183015 174.38638,67.8847874 173.799102,59.4863233 C173.294539,52.2707414 168.402855,47.3826696 160.856627,47.9103533 Z M291.958558,53.0257472 C283.625225,53.0257472 278.000225,60.4530977 278.000225,66.4701917 C278.000225,72.0172002 282.375225,75.0257472 289.875225,75.0257472 C297.166891,75.0257472 302.375225,72.1112173 302.896058,66.9402772 C303.000225,66.3761746 303.000225,65.9060891 303.000225,65.3419866 C303.000225,58.9488242 298.416891,53.0257472 291.958558,53.0257472 Z M390.13484,47.0257472 C388.918494,47.0257472 387.370417,47.2326438 385.711763,47.6464369 C378.192532,49.5085059 373.548302,54.4740231 372.000225,59.0257472 C378.855994,57.7843679 388.918494,54.4740231 392.788686,52.198161 C394.336763,51.2671266 395.000225,50.3360921 395.000225,49.5085059 C395.000225,48.1636783 393.230994,47.0257472 390.13484,47.0257472 Z M109.383111,19.0445906 C113.971541,19.0952465 117.677042,23.9283927 118.208883,28.9885201 C118.574523,32.4673577 117.358874,36.1123955 113.846478,38.1869052 C112.847685,38.824802 111.499394,39.1796809 110.234362,39.3126411 C104.752557,39.888802 97.9230981,36.7695875 97.3026171,30.8661055 C96.7245519,25.3661819 102.248533,19.9478613 108.052357,19.1880336 L108.328917,19.1553908 L109.383111,19.0445906 Z M464.804505,17.8183893 C469.489851,18.1035681 472.937326,23.1240215 473.198063,28.0991939 C473.386682,31.6982547 471.981932,35.274675 468.259924,37.1680647 C467.229115,37.7528145 465.864098,38.0366429 464.593842,38.1032142 C459.089396,38.39169 452.432543,34.919324 452.121877,28.9914591 C451.832448,23.4688193 457.632432,18.3470272 463.468067,17.8919894 L463.745957,17.8738654 L464.804505,17.8183893 Z" transform="rotate(-1 276.742 64.549)"/>
    <path fill="#FF751E" fill-rule="nonzero" d="M473.231412,41.4430917 C473.644432,43.4142384 473.957752,44.9980691 474.171371,46.1945836 C475.346247,52.7752579 476.259616,60.2379622 476.636986,67.4386097 C476.986486,74.1074578 476.901471,80.5867868 476.125852,86.0408542 C474.840653,94.9649077 470.387198,103.0473 461.420972,108.019615 C458.656111,109.552898 456.266015,110.694755 454.250686,111.445187 C453.328279,111.788656 452.302246,111.408835 451.819581,110.569092 L451.744279,110.424921 L446.584869,99.4991157 C446.120892,98.5165757 446.52626,97.3433343 447.49783,96.856804 C448.374035,96.4180135 449.051947,96.0607532 449.531567,95.7850231 C454.890481,92.7042244 457.682483,89.2960247 458.771674,85.0397297 C459.820026,80.7389691 460.055276,75.1009303 459.739063,69.0672107 C459.339401,61.4412088 458.125888,53.2176057 456.724729,46.3437068 C456.603289,45.7479379 456.443821,45.0025775 456.246325,44.1076257 C456.235027,44.0564306 456.225747,44.0048111 456.218506,43.9528868 C456.072876,42.9086434 456.761615,41.9404401 457.775996,41.7218673 L457.923067,41.6958149 L470.997679,39.8724406 C472.039427,39.7271593 473.015683,40.4136226 473.231412,41.4430917 Z M191.85019,52.47034 C193.232017,72.2313941 181.364873,84.507891 165.740463,85.6004561 C159.930704,86.0067141 153.334407,84.6896463 148.826625,82.7415375 L148.410227,82.5570869 L151.137676,107.548465 C151.141842,107.586639 151.144908,107.624925 151.14687,107.663276 C151.200733,108.716261 150.430049,109.620616 149.40044,109.749732 L149.251653,109.762836 L134.250811,110.530169 C133.237943,110.58198 132.35558,109.869279 132.180027,108.886179 L132.159067,108.736748 L124.398236,33.0349566 C124.39474,33.000862 124.392122,32.9666832 124.390383,32.9324541 C124.336893,31.87945 125.107897,30.9753674 126.137551,30.8466153 L126.286343,30.8335642 L140.954702,30.0884395 C141.964898,30.0371234 142.84551,30.746326 143.02367,31.7263473 L143.045054,31.8753204 L143.541288,36.5629675 C146.878737,31.9561726 154.525802,27.2335199 161.1045,26.7734924 C177.668724,25.6152091 190.59174,34.4736657 191.85019,52.47034 Z M51.0002247,9.52574725 C55.8489108,9.52574725 60.4284453,10.9513608 66.5002247,13.0257472 C66.9830024,13.1906853 68.1516732,13.7599209 70.006237,14.7334541 C70.8701644,15.1869634 71.2807415,16.1976889 70.9778332,17.125206 L70.9778332,17.125206 L66.9858425,29.3478872 C66.9674776,29.4041168 66.9466272,29.4595039 66.9233528,29.5138853 C66.4887393,30.5293727 65.3132003,31.0002641 64.2977225,30.5656282 C63.9200859,30.4040053 63.602308,30.2679316 63.3443887,30.157407 C59.4036168,28.4686915 56.8958334,27.5257472 54.5002247,27.5257472 C48.4358683,27.5257472 45.6390366,31.2137472 45.6390366,37.971989 L45.6390366,37.971989 L45.6392381,38.6845905 C45.6407495,40.6411399 45.6535969,43.7884079 45.762799,45.3785824 L45.762799,45.3785824 L62.2356213,44.9761105 C63.3274306,44.9494349 64.23876,45.8035428 64.2828418,46.8947879 L64.2828418,46.8947879 L64.7402085,58.2168952 C64.7406287,58.2272962 64.7409676,58.2377003 64.7412253,58.2481065 C64.7685715,59.3523375 63.8955839,60.269662 62.791353,60.2970081 L62.791353,60.2970081 L46.6291356,60.6972637 C47.5703881,70.3107039 50.381695,85.5563921 52.4999842,95.8279334 C52.6631067,96.6189111 52.8662665,97.5839838 53.1094637,98.7231514 C53.1250849,98.7963232 53.1365877,98.870314 53.1439179,98.9447748 C53.2521321,100.044027 52.448737,101.022872 51.3494852,101.131093 L51.3494852,101.131093 L37.0659906,102.537209 C36.0460305,102.637618 35.1152282,101.950753 34.9103995,100.946539 C34.7247494,100.036351 34.5681656,99.2601508 34.4406481,98.6179396 C32.4426469,88.5554873 29.4122721,71.7988522 28.4459673,61.1478132 L28.4459673,61.1478132 L22.6152934,61.3160616 C21.5201715,61.3476621 20.6034565,60.4923045 20.5592358,59.3976197 L20.5592358,59.3976197 L20.1030132,48.103836 C20.1023344,48.0870316 20.1018676,48.0702193 20.1016128,48.0534032 C20.0848824,46.9489604 20.9666475,46.0400699 22.0710903,46.0233395 L22.0710903,46.0233395 L27.4558683,45.9417692 C27.3458573,43.6389609 27.3336338,39.9339006 27.3322757,37.4776983 L27.3321059,36.6203407 C27.3321059,20.5131978 34.9111158,9.52574725 51.0002247,9.52574725 Z M230.189847,36.3656257 C248.028913,35.4307198 258.312241,46.7879735 259.066964,61.1889421 C259.383967,67.2377138 259.936242,76.1092277 260.723788,87.8034837 C260.725392,87.8273043 260.72657,87.8511516 260.72732,87.8750143 C260.762033,88.9790281 259.895194,89.9021485 258.79118,89.9368797 L258.79118,89.9368797 L244.271835,90.3934035 C243.196692,90.4272086 242.287381,89.6045689 242.213681,88.5314223 C241.457406,77.5195338 240.8844,69.3068802 240.494663,63.8934616 C240.000225,57.0257472 235.114477,52.5630153 229.130487,52.8766229 C219.872237,53.3618272 217.57964,59.3029627 218.346064,73.9272021 C218.50341,76.929548 218.963691,82.0803085 219.726905,89.3794838 C219.728625,89.395934 219.730141,89.412405 219.731452,89.4288928 C219.819034,90.5299869 218.99742,91.493599 217.896326,91.5811769 L217.896326,91.5811769 L203.164604,92.7529489 C202.092931,92.8381905 201.14559,92.0609893 201.019768,90.9933202 L201.019768,90.9933202 L195.198501,41.5965476 C195.196643,41.5807866 195.194974,41.565004 195.193492,41.5492032 C195.090364,40.4494585 195.898281,39.4743374 196.998026,39.3712093 L196.998026,39.3712093 L212.037931,37.9608474 L212.037931,37.9608474 L212.081902,37.9572128 C213.183654,37.8783693 214.140716,38.7076005 214.219559,39.8093525 L214.219559,39.8093525 L214.496601,43.6807116 C218.784648,39.0902454 224.431667,36.6673991 230.189847,36.3656257 Z M89.8113475,14.36927 C90.9138431,14.3016144 91.8624381,15.1405179 91.9300937,16.2430135 L91.9300937,16.2430135 L96.3817472,88.7857976 L96.3817472,88.7857976 L96.3836304,88.8217866 C96.4314098,89.9253222 95.5755504,90.8586475 94.4720148,90.906427 L94.4720148,90.906427 L81.6101253,91.4633049 C80.5223129,91.5104036 79.5966913,90.6786543 79.5276389,89.5920146 L79.5276389,89.5920146 L74.9720517,17.9032823 C74.9042165,16.8357983 75.688305,15.9038959 76.7516647,15.788182 L76.7516647,15.788182 L89.7174879,14.3772523 C89.7487074,14.373855 89.7800026,14.3711935 89.8113475,14.36927 Z M117.697908,43.0973207 L117.713816,43.245544 L120.888333,88.3596133 C120.962163,89.4088295 120.212639,90.3263791 119.188583,90.4781674 L119.040481,90.4945737 L106.001594,91.4569403 C104.943461,91.5314868 104.024174,90.7783433 103.875284,89.7514071 L103.859323,89.6028992 L100.675765,44.4081442 C100.600903,43.3003918 101.433927,42.3466298 102.535984,42.2721611 L115.583912,41.3904803 C116.633807,41.3195363 117.549528,42.0723049 117.697908,43.0973207 Z M436.170225,64.3237472 C436.700225,64.3237472 437.336225,64.4297472 437.866225,64.5357472 C442.000225,65.3837472 444.862225,70.2597472 444.862225,75.0297472 C444.862225,78.3157472 443.484225,81.6017472 440.304225,83.2977472 C439.244225,83.7217472 437.866225,84.0397472 436.488225,84.0397472 C431.400225,84.0397472 425.040225,80.7537472 425.040225,74.6057472 C425.040225,69.4117472 430.658225,64.3237472 436.170225,64.3237472 Z M293.617168,36.0257472 C309.212011,36.0257472 320.000225,46.3128958 320.000225,60.4695223 C320.000225,61.2245424 320.000225,61.9795625 319.893411,62.7345826 C318.932085,76.2305665 307.609801,83.0257472 290.19912,83.0257472 C275.886044,83.0257472 262.000225,76.7968316 262.000225,63.1120926 C262.000225,49.2385987 274.604276,36.0257472 293.617168,36.0257472 Z M340.363697,12.3138905 C340.500796,12.3023233 340.638724,12.3049343 340.775288,12.3216818 C341.871643,12.456134 342.651419,13.4539003 342.516968,14.5502554 C342.46663,14.9607272 342.42348,15.3152284 342.387517,15.6137591 C341.919349,19.500138 341.486599,24.4584025 341.188924,28.526559 L341.188924,28.526559 L351.425632,27.2848903 C352.518724,27.1523029 353.513378,27.928207 353.650817,29.0206992 L353.650817,29.0206992 L354.898761,38.9405017 C354.89901,38.9424844 354.899257,38.9444674 354.8995,38.9464509 C355.034086,40.0427904 354.254431,41.0406528 353.158091,41.1752388 L353.158091,41.1752388 L340.516028,42.7271718 C340.445125,47.9978191 340.585416,53.2499894 341.033534,58.3720039 C341.481652,63.4940183 343.456043,65.3857695 346.729538,65.0993757 C347.732706,65.0116099 350.878585,63.9807158 354.141896,62.771808 L354.896131,62.4900176 C355.298382,62.3384664 355.700053,62.1851115 356.097372,62.0313777 C356.032336,61.1867177 356.000225,60.3186141 356.000225,59.4273537 C356.000225,47.3149039 366.575413,34.4715304 382.492706,31.6522533 C384.78218,31.2345826 387.071653,31.0257472 389.252104,31.0257472 C401.898721,31.0257472 411.383683,37.6040605 411.383683,45.0177151 C411.383683,48.2546629 409.639322,51.5960284 405.496465,54.7285585 C400.064801,58.8400076 391.113191,62.4120534 382.997572,64.7403403 C381.940513,65.0435993 380.50648,65.4183838 378.695471,65.8646936 C377.896472,66.0616009 377.064649,65.7485236 376.591658,65.0884461 L376.50196,64.9518522 L371.808495,57.1301649 C371.699473,57.8610886 371.59045,58.69643 371.59045,59.4273537 C371.59045,67.1542613 374.643082,69.9735384 384.673157,69.9735384 C390.347735,69.9735384 396.564754,66.6615358 400.597081,62.3421874 C401.029606,61.8788759 401.529091,61.2557515 402.095537,60.4728143 C402.123921,60.4335816 402.153721,60.3953926 402.184877,60.358323 C402.860036,59.5550264 404.032393,59.4161792 404.872912,60.0136384 L405.002747,60.1141034 L412.611899,66.509483 C413.405921,67.1768459 413.557991,68.3404797 412.962126,69.1894722 C411.887044,70.7212968 410.993516,71.8734552 410.281544,72.6459474 C404.214193,79.2290468 395.290104,83.0257472 384.564134,83.0257472 C373.859765,83.0257472 366.241759,80.4231801 361.579852,75.5210421 C355.627222,77.686769 347.77619,80.1817915 344.77351,80.444492 C332.629897,81.5069205 325.806227,74.0524114 324.506685,59.1985695 C324.166115,55.3058385 324.043749,50.2585488 324.087764,44.6805806 L324.087764,44.6805806 L318.963117,45.1518035 C317.889116,45.2505603 316.930247,44.4799415 316.795626,43.4098443 L316.795626,43.4098443 L315.548582,33.4971927 C315.545713,33.4743907 315.543238,33.451541 315.541157,33.4286537 C315.441138,32.3286218 316.251809,31.3557887 317.351841,31.25577 L317.351841,31.25577 L324.452832,30.6101236 C324.677798,25.6104073 325.18549,20.8042573 325.636333,16.9089928 C325.68752,16.4667428 325.751409,15.8862914 325.828001,15.1676385 C325.929597,14.2143694 326.693326,13.4672639 327.6486,13.3866726 L327.6486,13.3866726 Z M513.655832,25.5994909 C522.84457,25.942797 530.690578,32.119086 531.220144,40.1582517 C531.301667,41.3958157 531.312451,42.4091317 531.252496,43.1981998 C531.251866,43.2064919 531.251184,43.21478 531.250451,43.2230637 C531.153032,44.3233391 530.182109,45.1363153 529.081836,45.0388782 L529.081836,45.0388782 L519.196145,44.1635979 C518.125855,44.0688342 517.321698,43.1453255 517.374998,42.0721713 C517.487978,39.7978589 516.322589,38.6180615 513.878832,38.5327792 C513.717116,38.5469275 513.372,38.5518714 512.951365,38.5530254 L512.417259,38.5529374 C512.138986,38.5523304 511.849062,38.5511386 511.570789,38.5505315 L511.036683,38.5504435 C510.616048,38.5515975 510.270932,38.5565415 510.109216,38.5706897 C505.490621,38.9747645 499.454301,40.905803 496.887849,43.2347318 C495.759422,44.2687423 495.180828,45.2546487 495.251883,46.0668074 C495.343239,47.1110115 496.283875,47.7301809 498.073792,47.9243157 C505.113343,48.594453 515.934051,50.6874431 522.42546,52.6915548 C529.146952,54.7924475 532.892579,59.6088204 533.339208,64.7138181 C533.82644,70.2829066 530.161906,76.6437064 522.701554,79.7955215 C515.241203,82.9473366 496.024726,82.9377873 492.766937,82.9954946 C492.423144,83.0015845 491.924947,83.0053738 491.272347,83.0068625 L489.86778,83.0069578 C489.550679,83.0064377 489.211864,83.0055941 488.851336,83.0044269 C487.786401,83.0009794 486.910937,82.1636638 486.860093,81.099937 L486.860093,81.099937 L486.379269,71.0433265 C486.376234,70.9798619 486.376226,70.9162888 486.379244,70.8528234 C486.431705,69.7495056 487.368648,68.8976179 488.471967,68.9500695 C489.215282,68.985413 489.836774,69.0087053 490.336444,69.0199464 C495.165556,69.1285877 500.374864,68.8838427 504.639626,68.5107244 C508.268522,68.1932371 511.337435,67.8078313 512.746699,67.4507152 C515.025545,66.9006098 516.424659,66.427471 516.373905,65.8473576 C516.333302,65.3832669 515.29285,64.889741 513.132431,64.260378 C509.95186,63.3695344 501.093307,61.6686478 494.383656,60.969648 C484.874087,59.9310556 480.243749,54.0933504 479.736215,48.2922166 C479.238832,42.6071055 481.512837,38.2144942 487.845223,33.3347847 C493.448445,28.9865117 498.68892,26.6574576 508.475944,25.801204 C509.795543,25.685754 512.216116,25.608539 513.655832,25.5994909 Z M160.856627,43.9103533 C152.613824,44.4867462 146.832965,50.2399816 147.42763,63.7491942 C147.472123,64.7940499 147.534493,65.9944942 147.603314,67.2116552 L147.63821,67.8209858 L147.673864,68.429245 C147.785637,70.3159398 147.903808,72.1310729 147.985375,73.3519223 L148.002278,73.6042462 L148.025325,73.9461212 L148.035725,74.0995389 L148.088463,74.8679139 L148.089057,74.8764057 L150.378477,68.7445024 C150.416333,68.6431093 150.462357,68.5449564 150.516096,68.4510106 C151.064537,67.4922283 152.286383,67.1595811 153.245175,67.7080065 C153.760728,68.0029127 154.213781,68.2358937 154.604334,68.4069497 C157.404475,69.633368 160.672221,70.3116397 163.157288,70.1378669 C170.58742,69.6183015 174.38638,63.8847874 173.799102,55.4863233 C173.294539,48.2707414 168.402855,43.3826696 160.856627,43.9103533 Z M291.958558,49.0257472 C283.625225,49.0257472 278.000225,56.4530977 278.000225,62.4701917 C278.000225,68.0172002 282.375225,71.0257472 289.875225,71.0257472 C297.166891,71.0257472 302.375225,68.1112173 302.896058,62.9402772 C303.000225,62.3761746 303.000225,61.9060891 303.000225,61.3419866 C303.000225,54.9488242 298.416891,49.0257472 291.958558,49.0257472 Z M390.13484,43.0257472 C388.918494,43.0257472 387.370417,43.2326438 385.711763,43.6464369 C378.192532,45.5085059 373.548302,50.4740231 372.000225,55.0257472 C378.855994,53.7843679 388.918494,50.4740231 392.788686,48.198161 C394.336763,47.2671266 395.000225,46.3360921 395.000225,45.5085059 C395.000225,44.1636783 393.230994,43.0257472 390.13484,43.0257472 Z M109.383111,15.0445906 C113.971541,15.0952465 117.677042,19.9283927 118.208883,24.9885201 C118.574523,28.4673577 117.358874,32.1123955 113.846478,34.1869052 C112.847685,34.824802 111.499394,35.1796809 110.234362,35.3126411 C104.752557,35.888802 97.9230981,32.7695875 97.3026171,26.8661055 C96.7245519,21.3661819 102.248533,15.9478613 108.052357,15.1880336 L108.328917,15.1553908 L109.383111,15.0445906 Z M464.804505,13.8183893 C469.489851,14.1035681 472.937326,19.1240215 473.198063,24.0991939 C473.386682,27.6982547 471.981932,31.274675 468.259924,33.1680647 C467.229115,33.7528145 465.864098,34.0366429 464.593842,34.1032142 C459.089396,34.39169 452.432543,30.919324 452.121877,24.9914591 C451.832448,19.4688193 457.632432,14.3470272 463.468067,13.8919894 L463.745957,13.8738654 L464.804505,13.8183893 Z" transform="rotate(-1 276.742 60.549)"/>
  </g>
</svg>
