<?xml version="1.0" encoding="UTF-8"?>
<svg width="553px" height="127px" viewBox="0 0 553 127" version="1.1" xmlns="http://www.w3.org/2000/svg" xmlns:xlink="http://www.w3.org/1999/xlink">
    <title>logo_dark</title>
    <g id="logo_dark" stroke="none" stroke-width="1" fill="none" fill-rule="evenodd">
        <g id="logo" transform="translate(19.249996, 5.054526)" fill-rule="nonzero">
            <g id="root">
                <path d="M17.8149625,101.482786 L32.0993742,100.076578 C33.1986914,99.968988 34.0024075,98.9904013 33.8945506,97.8911103 C33.8873003,97.8172142 33.8759405,97.7437791 33.860031,97.6712509 C33.6165855,96.5309406 33.4132389,95.5649929 33.2499911,94.7734075 C31.1317019,84.5018663 28.3203949,69.2561781 27.3791425,59.6427379 L43.5413599,59.2424823 C44.6455908,59.2151361 45.5185784,58.2978116 45.4912322,57.1935807 C45.4909745,57.1831744 45.4906356,57.1727703 45.4902154,57.1623693 L45.0328487,45.840262 C44.9887669,44.7490169 44.0774375,43.8949091 42.9856282,43.9215847 L26.5128058,44.3240566 L26.5128058,44.3240566 C26.3890435,42.5218588 26.3890435,38.719661 26.3890435,36.9174632 C26.3890435,30.1592214 29.1858751,26.4712214 35.2502316,26.4712214 C37.6458403,26.4712214 40.1536237,27.4141657 44.0943955,29.1028812 C44.3522773,29.2133897 44.6700001,29.3494398 45.0475641,29.5110316 C46.0630404,29.9456368 47.2385581,29.4747337 47.6731512,28.4592523 C47.6963265,28.4051002 47.7170983,28.3499507 47.7356284,28.2940379 L51.7291695,16.0666097 C52.031145,15.1390387 51.6194985,14.1290914 50.754552,13.6780401 C48.9009693,12.7050489 47.7328625,12.1361093 47.2502316,11.9712214 C41.1784522,9.89683494 36.5989176,8.47122141 31.7502316,8.47122141 C15.6611227,8.47122141 8.08211276,19.458672 8.08211276,35.5658148 C8.08211276,37.9311994 8.08211276,42.296584 8.20587514,44.8872434 L2.82109716,44.9688136 C1.71665437,44.985544 0.834889281,45.8944345 0.851619713,46.9988773 C0.851874449,47.0156935 0.852341287,47.0325058 0.853020115,47.0493101 L1.30924264,58.3430938 C1.35346342,59.4377787 2.27017843,60.2931363 3.36530027,60.2615357 L9.19597415,60.0932873 L9.19597415,60.0932873 C10.162279,70.7443263 13.1926537,87.5009615 15.190655,97.5634137 C15.3183752,98.2066461 15.4752543,98.9842936 15.6612922,99.8963561 C15.8684413,100.897816 16.7971675,101.582412 17.8149625,101.482786 Z M77.131754,87.7312718 L72.6801006,15.1884877 C72.6124449,14.0859921 71.66385,13.2470886 70.5613544,13.3147442 C70.5300095,13.3166677 70.4987143,13.3193292 70.4674947,13.3227265 L57.5016715,14.7336562 C56.4383118,14.8493701 55.6542234,15.7812725 55.7220586,16.8487564 L60.2776458,88.5374887 C60.3466982,89.6241285 61.2723198,90.4558778 62.3601322,90.408779 L75.2220216,89.8519012 C76.3255573,89.8041217 77.1814167,88.8707963 77.1336372,87.7672607 C77.1331176,87.755259 77.1324898,87.7432622 77.131754,87.7312718 Z M90.9843689,34.2581152 C92.2494007,34.125155 93.5976918,33.7702762 94.596485,33.1323794 C98.1088809,31.0578697 99.3245302,27.4128318 98.9588896,23.9339942 C98.4270488,18.8738668 94.7215483,14.0407206 90.1331174,13.9900647 L89.0789242,14.1008649 C83.1754423,14.7213459 77.4653831,20.2243556 78.052624,25.8115797 C78.673105,31.7150616 85.5025642,34.8342761 90.9843689,34.2581152 Z M101.63834,87.3050875 L98.4638231,42.1910182 C98.3864426,41.0913391 97.4338088,40.2616321 96.3339187,40.3359544 L83.2859907,41.2176353 C82.1839343,41.2921039 81.3509099,42.2458659 81.4253786,43.3479223 C81.4255069,43.3498211 81.425638,43.3517198 81.4257717,43.3536183 L84.6093302,88.5483734 C84.6869447,89.6502126 85.643081,90.4805108 86.7449202,90.4028963 C86.7471474,90.4027394 86.7493744,90.4025788 86.7516011,90.4024144 L99.7904875,89.4400479 C100.889395,89.3589403 101.715685,88.4042664 101.63834,87.3050875 Z M141.854507,25.7189666 C158.418731,24.5606833 171.341747,33.4191399 172.600197,51.4158141 C173.982024,71.1768682 162.11488,83.4533651 146.49047,84.5459302 C140.499156,84.9648838 133.671377,83.5511208 129.160234,81.5025611 L131.887683,106.493939 C131.891849,106.532113 131.894915,106.570399 131.896877,106.60875 C131.953305,107.711877 131.104787,108.651882 130.00166,108.70831 L115.000817,109.475643 C113.937306,109.530044 113.017677,108.741572 112.909074,107.682222 L105.148243,31.9804307 C105.144747,31.9463362 105.142129,31.9121574 105.14039,31.8779282 C105.084352,30.7747811 105.933202,29.8350761 107.036349,29.7790383 L121.704708,29.0339136 C122.765415,28.9800318 123.683254,29.7646217 123.795061,30.8207945 L124.291295,35.5084417 C127.628744,30.9016468 135.275809,26.178994 141.854507,25.7189666 Z M141.606634,42.8558275 C133.363831,43.4322204 127.582971,49.1854558 128.177637,62.6946683 C128.229545,63.9136667 128.305786,65.3444384 128.388217,66.76646 L128.423871,67.3747192 C128.543627,69.3961779 128.670729,71.3354867 128.752285,72.5497204 L128.775332,72.8915953 L128.785732,73.0450131 L128.83847,73.813388 L131.128223,67.6906736 C131.16431,67.5886878 131.210213,67.4905471 131.263826,67.396601 C131.811304,66.4372562 133.032824,66.1033717 133.991778,66.6515336 C134.508742,66.9473615 134.962929,67.1809916 135.354341,67.3524239 C138.154482,68.5788421 141.422228,69.2571139 143.907295,69.0833411 C151.337427,68.5637756 155.136386,62.8302616 154.549109,54.4317975 C154.044546,47.2162156 149.152862,42.3281438 141.606634,42.8558275 Z M183.914611,91.698423 L198.642504,90.5269556 C199.743771,90.4416055 200.567246,89.479587 200.481796,88.3783277 C200.480427,88.3606933 200.478825,88.3430778 200.476967,88.3254882 C199.71372,81.0260321 199.253421,75.8750948 199.096071,72.8726763 C198.329647,58.2484369 200.622244,52.3073014 209.880494,51.8220971 C215.864484,51.5084894 220.750232,55.9712214 221.24467,62.8389357 C221.634376,68.2519352 222.207324,76.4637361 222.963513,87.4743385 C223.035929,88.5502703 223.948336,89.3750315 225.026091,89.338744 L239.538412,88.8824411 C240.64248,88.8491578 241.510571,87.9271983 241.477346,86.8231286 C241.47656,86.7970134 241.475262,86.7709161 241.473518,86.7448472 C240.686119,75.0526229 240.133937,66.1824792 239.816971,60.1344162 C239.062248,45.7334476 228.77892,34.376194 210.939854,35.3110999 C205.181674,35.6128733 199.534655,38.0357196 195.246608,42.6261858 L194.969566,38.7548267 C194.890723,37.6530747 193.933661,36.8238435 192.831909,36.902687 C192.817239,36.9037368 192.802581,36.9049484 192.787937,36.9063216 L177.748033,38.3166834 C176.648288,38.4198116 175.840371,39.3949327 175.943499,40.4946774 C175.94498,40.5104781 175.94665,40.5262607 175.948508,40.5420217 L181.769775,89.9387943 C181.895597,91.0064635 182.842938,91.7836647 183.914611,91.698423 Z M274.367174,34.9712214 C289.962018,34.9712214 300.750232,45.25837 300.750232,59.4149965 C300.750232,60.1700166 300.750232,60.9250367 300.643418,61.6800567 C299.682092,75.1760407 288.359808,81.9712214 270.949127,81.9712214 C256.636051,81.9712214 242.750232,75.7423057 242.750232,62.0575668 C242.750232,48.1840728 255.354283,34.9712214 274.367174,34.9712214 Z M321.523391,11.26681 C322.619916,11.3998771 323.400953,12.3966585 323.267296,13.4931119 C323.21682,13.9046943 323.173563,14.2600681 323.137524,14.5592333 C322.669356,18.4456122 322.236606,23.4038767 321.93893,27.4720332 L332.175639,26.2303644 C333.26873,26.0977771 334.263385,26.8736811 334.400824,27.9661733 L335.648767,37.8859758 C335.784093,38.9882646 335.004438,39.9861269 333.908098,40.120713 L321.266035,41.672646 C321.195132,46.9432933 321.335423,52.1954635 321.783541,57.317478 C322.231659,62.4394925 324.206049,64.3312436 327.479545,64.0448499 C328.482713,63.957084 331.628592,62.9261899 334.891903,61.7172822 L335.646137,61.4354918 C336.048186,61.284017 336.449655,61.1307404 336.846777,60.9770846 C336.782343,60.1321918 336.750232,59.2640882 336.750232,58.3728278 C336.750232,46.260378 347.32542,33.4170045 363.242713,30.5977274 C365.532186,30.1800567 367.82166,29.9712214 370.002111,29.9712214 C382.648728,29.9712214 392.13369,36.5495347 392.13369,43.9631893 C392.13369,47.2001371 390.389329,50.5415025 386.246472,53.6740327 C380.814808,57.7854818 371.863198,61.3575275 363.747578,63.6858144 C362.690451,63.9890934 361.256298,64.3639072 359.44512,64.8102558 C358.592188,65.020562 357.701816,64.6498099 357.25105,63.8957986 L352.558502,56.0756391 C352.44948,56.8065628 352.340457,57.6419041 352.340457,58.3728278 C352.340457,66.0997355 355.393089,68.9190126 365.423164,68.9190126 C371.097742,68.9190126 377.314761,65.60701 381.347088,61.2876615 C381.779811,60.8241373 382.279557,60.2006535 382.846324,59.4172099 C382.871554,59.3764365 382.900963,59.3387044 382.931697,59.3020629 C383.641528,58.4557696 384.903017,58.3451458 385.748471,59.0559784 L393.359928,65.4532942 C394.155438,66.1188425 394.308449,67.2823184 393.714007,68.1322758 C392.638089,69.6654319 391.743937,70.8184805 391.031551,71.5914216 C384.964199,78.174521 376.040111,81.9712214 365.314141,81.9712214 C354.609772,81.9712214 346.991766,79.3686543 342.329859,74.4665163 C336.377229,76.6322431 328.526197,79.1272657 325.523517,79.3899662 C313.379904,80.4523947 306.556234,72.9978856 305.256691,58.1440436 C304.916122,54.2513126 304.793756,49.2040229 304.837771,43.6260548 L299.713123,44.0972776 C298.639122,44.1960345 297.680254,43.4254157 297.545633,42.3553185 L296.298589,32.4426669 C296.29572,32.4198649 296.293245,32.3970152 296.291164,32.3741278 C296.191145,31.274096 297.001816,30.3012629 298.101848,30.2012442 L305.202839,29.5555978 C305.427805,24.5558814 305.935497,19.7497314 306.38634,15.8544669 C306.437472,15.4126873 306.50128,14.8330001 306.577763,14.1154053 C306.677899,13.1616518 307.441269,12.413562 308.396816,12.3322979 L321.117808,11.2590184 C321.252917,11.2478722 321.38881,11.2504781 321.523391,11.26681 Z M272.708565,47.9712214 C264.375232,47.9712214 258.750232,55.3985718 258.750232,61.4156659 C258.750232,66.9626744 263.125232,69.9712214 270.625232,69.9712214 C277.916898,69.9712214 283.125232,67.0566915 283.646065,61.8857513 C283.750232,61.3216488 283.750232,60.8515633 283.750232,60.2874607 C283.750232,53.8942983 279.166898,47.9712214 272.708565,47.9712214 Z M370.884847,41.9712214 C369.668501,41.9712214 368.120424,42.178118 366.46177,42.5919111 C358.942539,44.45398 354.298308,49.4194973 352.750232,53.9712214 C359.606001,52.7298421 369.668501,49.4194973 373.538693,47.1436352 C375.08677,46.2126007 375.750232,45.2815662 375.750232,44.45398 C375.750232,43.1091524 373.981001,41.9712214 370.884847,41.9712214 Z M417.238232,82.9852214 C418.616232,82.9852214 419.994232,82.6672214 421.054232,82.2432214 C424.234232,80.5472214 425.612232,77.2612214 425.612232,73.9752214 C425.612232,69.2052214 422.750232,64.3292214 418.616232,63.4812214 C418.086232,63.3752214 417.450232,63.2692214 416.920232,63.2692214 C411.408232,63.2692214 405.790232,68.3572214 405.790232,73.5512214 C405.790232,79.6992214 412.150232,82.9852214 417.238232,82.9852214 Z M445.343849,33.0486884 C446.614105,32.982117 447.979122,32.6982886 449.009931,32.1135389 C452.731939,30.2201492 454.136689,26.6437289 453.94807,23.044668 C453.687333,18.0694957 450.239858,13.0490422 445.554512,12.7638635 L444.495964,12.8193396 C438.568099,13.1300058 432.57786,18.3266325 432.871884,23.9369332 C433.18255,29.8647981 439.839403,33.3371642 445.343849,33.0486884 Z M435.000224,110.390835 C437.015652,109.640406 439.405903,108.498491 442.170979,106.965089 C451.137205,101.992774 455.59066,93.9103818 456.875859,84.9863283 C457.651478,79.5322609 457.736493,73.0529319 457.386993,66.3840839 C457.009623,59.1834363 456.096254,51.7207321 454.921378,45.1400578 C454.70772,43.9433272 454.394326,42.3591406 453.981195,40.3874982 C453.764815,39.3585229 452.78873,38.672652 451.747339,38.8179631 L438.669173,40.6418331 C437.575518,40.7967296 436.814209,41.8086589 436.968788,42.9023588 C436.97594,42.9529648 436.98503,43.0032781 436.996337,43.0531217 C437.19383,43.9480638 437.353296,44.6934169 437.474736,45.2891809 C438.875895,52.1630799 440.089408,60.386683 440.489069,68.0126848 C440.805283,74.0464045 440.570033,79.6844432 439.521681,83.9852038 C438.43249,88.2414989 435.640488,91.6496986 430.281574,94.7304973 C429.801538,95.0064662 429.122867,95.3641067 428.245559,95.8034188 C427.275264,96.2886208 426.870117,97.4593957 427.332968,98.4405491 L432.496345,109.374757 C432.941763,110.311265 434.028585,110.753274 435.000224,110.390835 Z M503.451561,78.7409957 C510.911913,75.5891806 514.576447,69.2283807 514.089215,63.6592923 C513.642585,58.5542946 509.896959,53.7379217 503.175466,51.637029 C496.684058,49.6329173 485.86335,47.5399272 478.823799,46.8697899 C477.033882,46.6756551 476.093246,46.0564857 476.00189,45.0122816 C475.930835,44.2001229 476.509429,43.2142165 477.637856,42.180206 C480.204308,39.8512771 486.240627,37.9202387 490.859223,37.5161639 C491.409056,37.4680598 494.079006,37.5263575 494.628839,37.4782533 C497.072834,37.5635439 498.238212,38.7435629 498.124971,41.0183102 C498.072004,42.0907941 498.875518,43.0136058 499.945066,43.1089759 L509.830803,43.9842604 C510.931023,44.0821899 511.902494,43.2698876 512.000667,42.1696894 C512.001518,42.1601539 512.0023,42.1506123 512.002703,42.1410422 C512.062434,41.3523533 512.051583,40.3399145 511.970151,39.1037259 C511.440585,31.0645602 503.594577,24.8882712 494.405839,24.5449651 C492.966123,24.5540131 490.54555,24.6312282 489.225951,24.7466781 C479.438927,25.6029318 474.198452,27.9319858 468.59523,32.2802588 C462.262844,37.1599683 459.988839,41.5525797 460.486222,47.2376908 C460.993756,53.0388246 465.624094,58.8765298 475.133662,59.9151222 C481.843314,60.614122 490.701867,62.3150085 493.882438,63.2058521 C496.042857,63.8352151 497.083309,64.328741 497.123912,64.7928317 C497.174665,65.3729451 495.775552,65.8460839 493.496706,66.3961893 C492.087442,66.7533054 489.018529,67.1387113 485.389633,67.4561986 C481.124871,67.8293169 475.915563,68.0740619 471.086451,67.9654206 C470.587203,67.9541889 469.966338,67.9309264 469.223856,67.8956332 C468.120568,67.842443 467.182869,68.6935089 467.129436,69.7967853 C467.126371,69.8600827 467.126315,69.92349 467.12918,69.9867969 L467.609997,80.043245 C467.659838,81.1075241 468.535195,81.9459565 469.600633,81.9498988 C471.523836,81.9561266 472.829273,81.95315 473.516944,81.9409688 C476.774733,81.8832614 495.99121,81.8928108 503.451561,78.7409957 Z" id="logo-shadow" fill="#FF751F" transform="translate(257.491779, 59.494162) rotate(-1.000000) translate(-257.491779, -59.494162) "></path>
                <path d="M17.8149625,97.4827855 L32.0993742,96.0765785 C33.1986914,95.968988 34.0024075,94.9904013 33.8945506,93.8911103 C33.8873003,93.8172142 33.8759405,93.7437791 33.860031,93.6712509 C33.6165855,92.5309406 33.4132389,91.5649929 33.2499911,90.7734075 C31.1317019,80.5018663 28.3203949,65.2561781 27.3791425,55.6427379 L43.5413599,55.2424823 C44.6455908,55.2151361 45.5185784,54.2978116 45.4912322,53.1935807 C45.4909745,53.1831744 45.4906356,53.1727703 45.4902154,53.1623693 L45.0328487,41.840262 C44.9887669,40.7490169 44.0774375,39.8949091 42.9856282,39.9215847 L26.5128058,40.3240566 L26.5128058,40.3240566 C26.3890435,38.5218588 26.3890435,34.719661 26.3890435,32.9174632 C26.3890435,26.1592214 29.1858751,22.4712214 35.2502316,22.4712214 C37.6458403,22.4712214 40.1536237,23.4141657 44.0943955,25.1028812 C44.3522773,25.2133897 44.6700001,25.3494398 45.0475641,25.5110316 C46.0630404,25.9456368 47.2385581,25.4747337 47.6731512,24.4592523 C47.6963265,24.4051002 47.7170983,24.3499507 47.7356284,24.2940379 L51.7291695,12.0666097 C52.031145,11.1390387 51.6194985,10.1290914 50.754552,9.67804007 C48.9009693,8.70504886 47.7328625,8.13610931 47.2502316,7.97122141 C41.1784522,5.89683494 36.5989176,4.47122141 31.7502316,4.47122141 C15.6611227,4.47122141 8.08211276,15.458672 8.08211276,31.5658148 C8.08211276,33.9311994 8.08211276,38.296584 8.20587514,40.8872434 L2.82109716,40.9688136 C1.71665437,40.985544 0.834889281,41.8944345 0.851619713,42.9988773 C0.851874449,43.0156935 0.852341287,43.0325058 0.853020115,43.0493101 L1.30924264,54.3430938 C1.35346342,55.4377787 2.27017843,56.2931363 3.36530027,56.2615357 L9.19597415,56.0932873 L9.19597415,56.0932873 C10.162279,66.7443263 13.1926537,83.5009615 15.190655,93.5634137 C15.3183752,94.2066461 15.4752543,94.9842936 15.6612922,95.8963561 C15.8684413,96.8978159 16.7971675,97.5824116 17.8149625,97.4827855 Z M77.131754,83.7312718 L72.6801006,11.1884877 C72.6124449,10.0859921 71.66385,9.24708855 70.5613544,9.31474419 C70.5300095,9.3166677 70.4987143,9.3193292 70.4674947,9.32272648 L57.5016715,10.7336562 C56.4383118,10.8493701 55.6542234,11.7812725 55.7220586,12.8487564 L60.2776458,84.5374887 C60.3466982,85.6241285 61.2723198,86.4558778 62.3601322,86.408779 L75.2220216,85.8519012 C76.3255573,85.8041217 77.1814167,84.8707963 77.1336372,83.7672607 C77.1331176,83.755259 77.1324898,83.7432622 77.131754,83.7312718 Z M90.9843689,30.2581152 C92.2494007,30.125155 93.5976918,29.7702762 94.596485,29.1323794 C98.1088809,27.0578697 99.3245302,23.4128318 98.9588896,19.9339942 C98.4270488,14.8738668 94.7215483,10.0407206 90.1331174,9.99006475 L89.0789242,10.1008649 C83.1754423,10.7213459 77.4653831,16.2243556 78.052624,21.8115797 C78.673105,27.7150616 85.5025642,30.8342761 90.9843689,30.2581152 Z M101.63834,83.3050875 L98.4638231,38.1910182 C98.3864426,37.0913391 97.4338088,36.2616321 96.3339187,36.3359544 L83.2859907,37.2176353 C82.1839343,37.2921039 81.3509099,38.2458659 81.4253786,39.3479223 C81.4255069,39.3498211 81.425638,39.3517198 81.4257717,39.3536183 L84.6093302,84.5483734 C84.6869447,85.6502126 85.643081,86.4805108 86.7449202,86.4028963 C86.7471474,86.4027394 86.7493744,86.4025788 86.7516011,86.4024144 L99.7904875,85.4400479 C100.889395,85.3589403 101.715685,84.4042664 101.63834,83.3050875 Z M141.854507,21.7189666 C158.418731,20.5606833 171.341747,29.4191399 172.600197,47.4158141 C173.982024,67.1768682 162.11488,79.4533651 146.49047,80.5459302 C140.499156,80.9648838 133.671377,79.5511208 129.160234,77.5025611 L131.887683,102.493939 C131.891849,102.532113 131.894915,102.570399 131.896877,102.60875 C131.953305,103.711877 131.104787,104.651882 130.00166,104.70831 L115.000817,105.475643 C113.937306,105.530044 113.017677,104.741572 112.909074,103.682222 L105.148243,27.9804307 C105.144747,27.9463362 105.142129,27.9121574 105.14039,27.8779282 C105.084352,26.7747811 105.933202,25.8350761 107.036349,25.7790383 L121.704708,25.0339136 C122.765415,24.9800318 123.683254,25.7646217 123.795061,26.8207945 L124.291295,31.5084417 C127.628744,26.9016468 135.275809,22.178994 141.854507,21.7189666 Z M141.606634,38.8558275 C133.363831,39.4322204 127.582971,45.1854558 128.177637,58.6946683 C128.229545,59.9136667 128.305786,61.3444384 128.388217,62.76646 L128.423871,63.3747192 C128.543627,65.3961779 128.670729,67.3354867 128.752285,68.5497204 L128.775332,68.8915953 L128.785732,69.0450131 L128.83847,69.813388 L131.128223,63.6906736 C131.16431,63.5886878 131.210213,63.4905471 131.263826,63.396601 C131.811304,62.4372562 133.032824,62.1033717 133.991778,62.6515336 C134.508742,62.9473615 134.962929,63.1809916 135.354341,63.3524239 C138.154482,64.5788421 141.422228,65.2571139 143.907295,65.0833411 C151.337427,64.5637756 155.136386,58.8302616 154.549109,50.4317975 C154.044546,43.2162156 149.152862,38.3281438 141.606634,38.8558275 Z M183.914611,87.698423 L198.642504,86.5269556 C199.743771,86.4416055 200.567246,85.479587 200.481796,84.3783277 C200.480427,84.3606933 200.478825,84.3430778 200.476967,84.3254882 C199.71372,77.0260321 199.253421,71.8750948 199.096071,68.8726763 C198.329647,54.2484369 200.622244,48.3073014 209.880494,47.8220971 C215.864484,47.5084894 220.750232,51.9712214 221.24467,58.8389357 C221.634376,64.2519352 222.207324,72.4637361 222.963513,83.4743385 C223.035929,84.5502703 223.948336,85.3750315 225.026091,85.338744 L239.538412,84.8824411 C240.64248,84.8491578 241.510571,83.9271983 241.477346,82.8231286 C241.47656,82.7970134 241.475262,82.7709161 241.473518,82.7448472 C240.686119,71.0526229 240.133937,62.1824792 239.816971,56.1344162 C239.062248,41.7334476 228.77892,30.376194 210.939854,31.3110999 C205.181674,31.6128733 199.534655,34.0357196 195.246608,38.6261858 L194.969566,34.7548267 C194.890723,33.6530747 193.933661,32.8238435 192.831909,32.902687 C192.817239,32.9037368 192.802581,32.9049484 192.787937,32.9063216 L177.748033,34.3166834 C176.648288,34.4198116 175.840371,35.3949327 175.943499,36.4946774 C175.94498,36.5104781 175.94665,36.5262607 175.948508,36.5420217 L181.769775,85.9387943 C181.895597,87.0064635 182.842938,87.7836647 183.914611,87.698423 Z M274.367174,30.9712214 C289.962018,30.9712214 300.750232,41.25837 300.750232,55.4149965 C300.750232,56.1700166 300.750232,56.9250367 300.643418,57.6800567 C299.682092,71.1760407 288.359808,77.9712214 270.949127,77.9712214 C256.636051,77.9712214 242.750232,71.7423057 242.750232,58.0575668 C242.750232,44.1840728 255.354283,30.9712214 274.367174,30.9712214 Z M321.523391,7.26680998 C322.619916,7.39987713 323.400953,8.39665846 323.267296,9.49311188 C323.21682,9.90469434 323.173563,10.2600681 323.137524,10.5592333 C322.669356,14.4456122 322.236606,19.4038767 321.93893,23.4720332 L332.175639,22.2303644 C333.26873,22.0977771 334.263385,22.8736811 334.400824,23.9661733 L335.648767,33.8859758 C335.784093,34.9882646 335.004438,35.9861269 333.908098,36.120713 L321.266035,37.672646 C321.195132,42.9432933 321.335423,48.1954635 321.783541,53.317478 C322.231659,58.4394925 324.206049,60.3312436 327.479545,60.0448499 C328.482713,59.957084 331.628592,58.9261899 334.891903,57.7172822 L335.646137,57.4354918 C336.048186,57.284017 336.449655,57.1307404 336.846777,56.9770846 C336.782343,56.1321918 336.750232,55.2640882 336.750232,54.3728278 C336.750232,42.260378 347.32542,29.4170045 363.242713,26.5977274 C365.532186,26.1800567 367.82166,25.9712214 370.002111,25.9712214 C382.648728,25.9712214 392.13369,32.5495347 392.13369,39.9631893 C392.13369,43.2001371 390.389329,46.5415025 386.246472,49.6740327 C380.814808,53.7854818 371.863198,57.3575275 363.747578,59.6858144 C362.690451,59.9890934 361.256298,60.3639072 359.44512,60.8102558 C358.592188,61.020562 357.701816,60.6498099 357.25105,59.8957986 L352.558502,52.0756391 C352.44948,52.8065628 352.340457,53.6419041 352.340457,54.3728278 C352.340457,62.0997355 355.393089,64.9190126 365.423164,64.9190126 C371.097742,64.9190126 377.314761,61.60701 381.347088,57.2876615 C381.779811,56.8241373 382.279557,56.2006535 382.846324,55.4172099 C382.871554,55.3764365 382.900963,55.3387044 382.931697,55.3020629 C383.641528,54.4557696 384.903017,54.3451458 385.748471,55.0559784 L393.359928,61.4532942 C394.155438,62.1188425 394.308449,63.2823184 393.714007,64.1322758 C392.638089,65.6654319 391.743937,66.8184805 391.031551,67.5914216 C384.964199,74.174521 376.040111,77.9712214 365.314141,77.9712214 C354.609772,77.9712214 346.991766,75.3686543 342.329859,70.4665163 C336.377229,72.6322431 328.526197,75.1272657 325.523517,75.3899662 C313.379904,76.4523947 306.556234,68.9978856 305.256691,54.1440436 C304.916122,50.2513126 304.793756,45.2040229 304.837771,39.6260548 L299.713123,40.0972776 C298.639122,40.1960345 297.680254,39.4254157 297.545633,38.3553185 L296.298589,28.4426669 C296.29572,28.4198649 296.293245,28.3970152 296.291164,28.3741278 C296.191145,27.274096 297.001816,26.3012629 298.101848,26.2012442 L305.202839,25.5555978 C305.427805,20.5558814 305.935497,15.7497314 306.38634,11.8544669 C306.437472,11.4126873 306.50128,10.8330001 306.577763,10.1154053 C306.677899,9.16165182 307.441269,8.41356203 308.396816,8.33229788 L321.117808,7.25901838 C321.252917,7.24787215 321.38881,7.25047811 321.523391,7.26680998 Z M272.708565,43.9712214 C264.375232,43.9712214 258.750232,51.3985718 258.750232,57.4156659 C258.750232,62.9626744 263.125232,65.9712214 270.625232,65.9712214 C277.916898,65.9712214 283.125232,63.0566915 283.646065,57.8857513 C283.750232,57.3216488 283.750232,56.8515633 283.750232,56.2874607 C283.750232,49.8942983 279.166898,43.9712214 272.708565,43.9712214 Z M370.884847,37.9712214 C369.668501,37.9712214 368.120424,38.178118 366.46177,38.5919111 C358.942539,40.45398 354.298308,45.4194973 352.750232,49.9712214 C359.606001,48.7298421 369.668501,45.4194973 373.538693,43.1436352 C375.08677,42.2126007 375.750232,41.2815662 375.750232,40.45398 C375.750232,39.1091524 373.981001,37.9712214 370.884847,37.9712214 Z M417.238232,78.9852214 C418.616232,78.9852214 419.994232,78.6672214 421.054232,78.2432214 C424.234232,76.5472214 425.612232,73.2612214 425.612232,69.9752214 C425.612232,65.2052214 422.750232,60.3292214 418.616232,59.4812214 C418.086232,59.3752214 417.450232,59.2692214 416.920232,59.2692214 C411.408232,59.2692214 405.790232,64.3572214 405.790232,69.5512214 C405.790232,75.6992214 412.150232,78.9852214 417.238232,78.9852214 Z M445.343849,29.0486884 C446.614105,28.982117 447.979122,28.6982886 449.009931,28.1135389 C452.731939,26.2201492 454.136689,22.6437289 453.94807,19.044668 C453.687333,14.0694957 450.239858,9.04904222 445.554512,8.76386347 L444.495964,8.81933958 C438.568099,9.13000582 432.57786,14.3266325 432.871884,19.9369332 C433.18255,25.8647981 439.839403,29.3371642 445.343849,29.0486884 Z M435.000224,106.390835 C437.015652,105.640406 439.405903,104.498491 442.170979,102.965089 C451.137205,97.9927741 455.59066,89.9103818 456.875859,80.9863283 C457.651478,75.5322609 457.736493,69.0529319 457.386993,62.3840839 C457.009623,55.1834363 456.096254,47.7207321 454.921378,41.1400578 C454.70772,39.9433272 454.394326,38.3591406 453.981195,36.3874982 C453.764815,35.3585229 452.78873,34.672652 451.747339,34.8179631 L438.669173,36.6418331 C437.575518,36.7967296 436.814209,37.8086589 436.968788,38.9023588 C436.97594,38.9529648 436.98503,39.0032781 436.996337,39.0531217 C437.19383,39.9480638 437.353296,40.6934169 437.474736,41.2891809 C438.875895,48.1630799 440.089408,56.386683 440.489069,64.0126848 C440.805283,70.0464045 440.570033,75.6844432 439.521681,79.9852038 C438.43249,84.2414989 435.640488,87.6496986 430.281574,90.7304973 C429.801538,91.0064662 429.122867,91.3641067 428.245559,91.8034188 C427.275264,92.2886208 426.870117,93.4593957 427.332968,94.4405491 L432.496345,105.374757 C432.941763,106.311265 434.028585,106.753274 435.000224,106.390835 Z M503.451561,74.7409957 C510.911913,71.5891806 514.576447,65.2283807 514.089215,59.6592923 C513.642585,54.5542946 509.896959,49.7379217 503.175466,47.637029 C496.684058,45.6329173 485.86335,43.5399272 478.823799,42.8697899 C477.033882,42.6756551 476.093246,42.0564857 476.00189,41.0122816 C475.930835,40.2001229 476.509429,39.2142165 477.637856,38.180206 C480.204308,35.8512771 486.240627,33.9202387 490.859223,33.5161639 C491.409056,33.4680598 494.079006,33.5263575 494.628839,33.4782533 C497.072834,33.5635439 498.238212,34.7435629 498.124971,37.0183102 C498.072004,38.0907941 498.875518,39.0136058 499.945066,39.1089759 L509.830803,39.9842604 C510.931023,40.0821899 511.902494,39.2698876 512.000667,38.1696894 C512.001518,38.1601539 512.0023,38.1506123 512.002703,38.1410422 C512.062434,37.3523533 512.051583,36.3399145 511.970151,35.1037259 C511.440585,27.0645602 503.594577,20.8882712 494.405839,20.5449651 C492.966123,20.5540131 490.54555,20.6312282 489.225951,20.7466781 C479.438927,21.6029318 474.198452,23.9319858 468.59523,28.2802588 C462.262844,33.1599683 459.988839,37.5525797 460.486222,43.2376908 C460.993756,49.0388246 465.624094,54.8765298 475.133662,55.9151222 C481.843314,56.614122 490.701867,58.3150085 493.882438,59.2058521 C496.042857,59.8352151 497.083309,60.328741 497.123912,60.7928317 C497.174665,61.3729451 495.775552,61.8460839 493.496706,62.3961893 C492.087442,62.7533054 489.018529,63.1387113 485.389633,63.4561986 C481.124871,63.8293169 475.915563,64.0740619 471.086451,63.9654206 C470.587203,63.9541889 469.966338,63.9309264 469.223856,63.8956332 C468.120568,63.842443 467.182869,64.6935089 467.129436,65.7967853 C467.126371,65.8600827 467.126315,65.92349 467.12918,65.9867969 L467.609997,76.043245 C467.659838,77.1075241 468.535195,77.9459565 469.600633,77.9498988 C471.523836,77.9561266 472.829273,77.95315 473.516944,77.9409688 C476.774733,77.8832614 495.99121,77.8928108 503.451561,74.7409957 Z" id="logo" fill="#FFBC69" transform="translate(257.491779, 55.494162) rotate(-1.000000) translate(-257.491779, -55.494162) "></path>
            </g>
        </g>
    </g>
</svg>