<svg xmlns="http://www.w3.org/2000/svg" width="240" height="240" viewBox="0 0 240 240">
  <path fill-rule="evenodd" d="M162,158 C169.723119,158 176.516754,161.979592 180.442154,168.000024 L188,168 C194.627417,168 200,173.372583 200,180 C200,186.627417 194.627417,192 188,192 L180.441502,192.000977 C176.516001,198.020849 169.722691,202 162,202 C154.277309,202 147.483999,198.020849 143.558498,192.000977 L52,192 C45.372583,192 40,186.627417 40,180 C40,173.372583 45.372583,168 52,168 L143.557846,168.000024 C147.483246,161.979592 154.276881,158 162,158 Z M78,102 C85.7231188,102 92.5167542,105.979592 96.442154,112.000024 L188,112 C194.627417,112 200,117.372583 200,124 C200,130.627417 194.627417,136 188,136 L96.4415016,136.000977 C92.5160015,142.020849 85.722691,146 78,146 C70.277309,146 63.4839985,142.020849 59.5584984,136.000977 L52,136 C45.372583,136 40,130.627417 40,124 C40,117.372583 45.372583,112 52,112 L59.557846,112.000024 C63.4832458,105.979592 70.2768812,102 78,102 Z M162,46 C169.723119,46 176.516754,49.9795919 180.442154,56.0000237 L188,56 C194.627417,56 200,61.372583 200,68 C200,74.627417 194.627417,80 188,80 L180.441502,80.0009768 C176.516001,86.020849 169.722691,90 162,90 C154.277309,90 147.483999,86.020849 143.558498,80.0009768 L52,80 C45.372583,80 40,74.627417 40,68 C40,61.372583 45.372583,56 52,56 L143.557846,56.0000237 C147.483246,49.9795919 154.276881,46 162,46 Z"/>
</svg>
